<?xml version="1.0" encoding="utf-8"?>
<!-- Generator: Adobe Illustrator 15.0.0, SVG Export Plug-In . SVG Version: 6.00 Build 0)  -->
<!DOCTYPE svg PUBLIC "-//W3C//DTD SVG 1.1//EN" "http://www.w3.org/Graphics/SVG/1.1/DTD/svg11.dtd">
<svg version="1.1" id="Слой_1" xmlns="http://www.w3.org/2000/svg" xmlns:xlink="http://www.w3.org/1999/xlink" x="0px" y="0px"
	 width="93.353px" height="48.854px" viewBox="0 0 93.353 48.854" enable-background="new 0 0 93.353 48.854" xml:space="preserve">
<g opacity="0.8">
	<path d="M16.646,38.434v8.558c0,0-2.862-8.021-2.928-8.23c-0.072-0.217-0.233-0.328-0.52-0.328h-2.735v10.418h1.841v-8.448
		c0,0,2.827,7.923,2.896,8.125c0.065,0.206,0.247,0.325,0.481,0.325h2.811v-10.42H16.646z"/>
	<path d="M26.356,38.434v10.418h2.165c0,0,0-4.208,0-4.436h3.907v-1.901l-3.907,0.008v-2.175h3.972v-1.914H26.356z"/>
	<polygon points="76.541,38.434 76.541,40.44 78.968,40.44 78.968,48.854 81.173,48.854 81.173,40.44 83.593,40.44 83.593,38.434 	
		"/>
	<rect x="40.131" y="38.435" width="2.342" height="10.415"/>
	<rect x="66.746" y="38.435" width="2.34" height="10.415"/>
	<rect x="91.019" y="38.435" width="2.334" height="10.415"/>
	<rect y="38.435" width="2.336" height="10.415"/>
	<path d="M56.831,38.434v8.558c0,0-2.87-8.021-2.938-8.23c-0.074-0.217-0.226-0.328-0.511-0.328h-2.74v10.418h1.843v-8.448
		c0,0,2.828,7.923,2.894,8.125c0.062,0.206,0.245,0.325,0.484,0.325h2.809v-10.42H56.831z"/>
	<path d="M54.534,29.163c1.022-0.13,8.041-0.984,13.048-3.439c5.398-2.644,7.944-7.052,7.944-10.942C75.526,6.44,63.875,0,47.165,0
		C30.448,0,18.81,6.44,18.81,14.781c0,3.89,2.542,8.298,7.948,10.942c5.007,2.455,12.088,3.31,13.109,3.439l7.297-21.209
		L54.534,29.163z M47.165,4.659c0,0-11.021,14.718-12.069,16.073c-4.064-0.349-11.136-3.019-11.136-7.665
		c0-5.907,10.267-11.378,23.206-11.378c13.589,0,23.207,5.471,23.207,11.378c0,4.646-7.033,7.281-11.113,7.629
		C58.139,19.255,47.165,4.659,47.165,4.659"/>
</g>
</svg>
